<svg width="120" height="120" viewBox="0 0 120 120" fill="none" xmlns="http://www.w3.org/2000/svg">
<g clip-path="url(#clip0_2325_32)">
<path d="M96.3922 71.318C93.4608 67.8176 86.3614 62.7092 82.9168 60.6506C78.4312 57.9728 78.062 57.754 74.5363 60.8584C72.1846 62.9302 70.6211 64.781 67.8688 64.0853C65.1165 63.3896 59.1357 59.467 53.8988 53.28C48.6619 47.0931 45.1601 39.7991 44.5713 36.5482C43.9824 33.2972 45.5699 31.466 47.3014 28.6723C49.7417 24.7343 49.5571 24.078 47.4712 18.7618C45.845 14.6269 41.4092 6.29159 38.4446 2.83495C35.2733 -0.877658 35.2733 -0.221334 33.2299 0.78503C31.5663 1.6146 29.9702 2.62299 28.4618 3.79756C25.5083 6.12314 23.8691 8.05492 22.7228 10.9581C21.5765 13.8612 21.0615 20.6673 26.9814 33.4131C32.9013 46.1589 37.0546 52.6762 45.6511 62.8361C54.2477 72.996 60.8579 78.4589 70.5214 84.8821C82.4757 92.817 87.061 91.2703 89.5179 89.9139C91.9748 88.5575 93.6122 86.6323 95.5781 83.1319C96.5717 81.3471 97.4245 79.4577 98.1255 77.4875C98.9765 75.0744 99.5302 75.0744 96.3922 71.318Z" stroke="#BF0000" stroke-width="5.90699" stroke-miterlimit="10"/>
</g>
<defs>
<clipPath id="clip0_2325_32">
<rect width="119.599" height="119.599" fill="white"/>
</clipPath>
</defs>
</svg>
