<svg width="120" height="120" viewBox="0 0 120 120" fill="none" xmlns="http://www.w3.org/2000/svg">
<path d="M88.8515 68.5781C87.375 68.4609 85.8984 68.4375 84.3984 68.4844C84.4687 70.1953 84.6094 71.8828 84.7031 73.5938C85.9219 73.5469 87.164 73.4766 88.3828 73.3828C88.7812 73.3594 89.0859 73.5 89.2969 73.7109C89.2031 72 89.0625 70.2891 88.8515 68.5781ZM89.6953 80.7656C89.5781 78.9375 89.5078 77.1094 89.3906 75.2578C89.2265 75.4922 88.9453 75.6797 88.5703 75.7031C87.3047 75.7969 86.0391 75.8672 84.7734 75.9375C84.7969 77.6484 84.7031 79.4531 83.9531 80.9297C85.875 80.8594 87.7734 80.7891 89.6953 80.7656ZM82.3594 73.6641C82.2656 71.9766 82.125 70.2656 82.0547 68.5781C80.3906 68.625 78.375 68.6719 76.9922 69.4453C76.9922 69.4687 76.9922 69.4922 76.9922 69.5156V73.7109C78.7734 73.7109 80.5781 73.7109 82.3594 73.6641ZM66.1875 45.8438C65.2031 43.3594 62.4844 42.4453 60 42.9141C57.164 43.4297 55.0078 45.5625 54.4922 48.3984C54.4453 48.6562 54.3281 48.8672 54.1875 49.0078C54.2578 50.4375 54.539 51.9844 55.664 52.9219C57.1875 54.1641 59.6015 54.2812 61.4765 53.9531C63.3515 53.625 65.1562 52.6406 65.9765 50.8594C66.6562 49.3125 66.8203 47.4375 66.1875 45.8438ZM43.3125 79.8984C43.289 80.7656 43.2656 81.6562 43.1719 82.5234C43.1484 82.8281 43.0781 83.2031 42.9609 83.5312C44.3672 83.7188 47.2031 84.0703 47.789 82.8281C48.3281 81.6797 48.4453 80.3438 48.4219 79.0312C46.8984 79.8047 45.0234 79.8984 43.3125 79.8984ZM47.9531 70.7812C47.9062 70.7812 47.8594 70.7812 47.8125 70.7812C46.9922 70.7812 46.1719 70.7578 45.3515 70.8516C44.7422 70.9219 44.1797 71.1328 43.5703 71.1328H43.2422C43.2422 71.1797 43.2422 71.2266 43.2422 71.2734C43.2422 73.3594 43.3125 75.4688 43.3359 77.5547C44.8594 77.5781 46.5469 77.5312 47.7656 76.7109C47.9531 76.5937 48.1406 76.5234 48.3281 76.5C48.1875 74.625 47.9531 72.7031 47.9531 70.7812ZM103.664 44.4609C99.8672 42.8438 96.8437 39.5859 93.8672 36.8203C90.164 33.375 85.8281 30.7031 81.6328 27.8906C77.3437 25.0312 73.2891 21.8906 69.4219 18.4688C66.1875 15.5859 62.8594 12.4453 58.7578 10.8047C58.7344 10.8516 58.7344 10.875 58.7109 10.9219C58.7578 13.8281 59.0156 16.7344 59.6015 19.5703C59.8594 19.5469 60.1406 19.6406 60.4219 19.8516C66.7969 25.4297 74.3203 29.4609 80.8359 34.8516C84.4687 37.875 87.9844 41.0156 91.664 43.9922C94.5 46.2891 97.0312 49.0547 100.195 50.9062C100.898 50.0859 101.508 49.1953 102.094 48.3281C102.539 47.6719 102.961 46.9922 103.312 46.2891C103.43 46.0547 103.547 45.8203 103.617 45.5859C103.406 45.2109 103.453 44.7891 103.664 44.4609ZM40.9219 71.4609C40.9219 71.3672 40.9219 71.2734 40.9453 71.1797C40.7578 71.1797 40.5703 71.2031 40.4062 71.2031C39.375 71.25 38.25 71.25 37.2656 71.5078C36.7734 71.6484 36.6328 71.6484 36.5156 72.2344C36.1172 73.8516 36.2578 75.6094 36.4453 77.2734C37.9687 77.3203 39.5156 77.4375 41.039 77.5312V77.3438C40.9922 75.375 40.9219 73.4297 40.9219 71.4609ZM36.7031 79.5938C36.8437 80.6016 37.0078 81.6328 37.1484 82.6406C38.2969 82.8047 39.4219 83.0156 40.5703 83.2031C40.5703 82.9453 40.6406 82.6875 40.8281 82.5C40.8515 82.4062 40.8515 82.3125 40.875 82.2187C40.9219 81.7969 40.9453 81.375 40.9687 80.9297C40.9922 80.5547 40.9922 80.2031 40.9922 79.8281C39.5625 79.7578 38.1328 79.6406 36.7031 79.5938Z" fill="#D6E5E5"/>
<path d="M98.5547 52.8281C98.5547 52.7813 98.5547 52.7109 98.5547 52.6641C95.5781 50.7891 93.1172 48.2109 90.3984 46.0078C86.7422 43.0547 83.25 39.9375 79.6406 36.9375C73.3359 31.7109 66.1172 27.7266 59.8594 22.4766C58.5703 24.2344 57.1172 25.8281 55.5937 27.375C53.8594 29.1328 52.1719 31.0078 50.3672 32.6953C48.3984 34.5234 46.6172 36.5156 44.8125 38.5078C43.125 40.3594 41.2031 42.0469 39.5625 43.9219C36.7734 47.0859 33.8437 50.9063 30.1172 53.0859C30.2578 53.5313 30.1641 54.0234 29.7188 54.3984C30.0469 54.1172 29.9297 54.0469 29.8828 54.4219C29.8594 54.6328 29.8359 54.8438 29.8594 55.0781C29.8828 55.6641 29.9062 56.2266 29.9766 56.7891C30.1172 58.0078 30.3047 59.2266 30.4453 60.4453C30.6328 61.8984 30.5859 63.3281 30.6562 64.7813C30.7266 66.7734 30.8437 68.7656 31.0312 70.7344C31.2187 72.9844 31.4062 75.2578 31.5703 77.5313C31.7109 77.7891 31.7578 78.0938 31.6406 78.3984C32.0625 84.1875 32.3437 89.9766 32.3906 95.7656C32.3906 95.7891 32.3906 95.8125 32.3906 95.8594C32.4375 95.8594 32.4844 95.8594 32.5312 95.8594C32.6719 95.8594 32.7891 95.8828 32.9062 95.9063C33 95.8828 33.1172 95.8594 33.2344 95.8594C36.7266 95.8828 40.2187 96.2109 43.7109 95.9063C45.4453 95.7422 47.1562 95.625 48.8906 95.3906C49.7578 95.2734 50.6016 95.1562 51.4688 95.1094C51.75 95.1094 53.4844 95.2734 53.5312 95.2031C53.6484 95.0859 53.7656 95.0156 53.9062 94.9453C53.7188 93.5625 53.5078 92.2031 53.3438 90.8203C52.8984 87.5156 52.8984 84.0469 52.8984 80.7188C52.8984 77.2734 53.0391 73.8281 53.625 70.4297C53.7188 69.8906 54.1641 69.5625 54.6797 69.4922C55.9922 69.3047 57.3047 69.2109 58.6172 69.1641C59.7188 69.1406 60.8906 69.2813 61.9922 69.1172C63.4688 68.9063 64.8984 68.3203 66.3984 68.25C70.8281 68.0156 70.6406 74.25 70.7109 77.3203C70.7344 78.9141 70.5469 80.5547 70.7344 82.1484C70.8984 83.4375 71.0391 84.75 71.1797 86.0391C71.4844 88.8516 71.7656 91.6641 72 94.4766C72.0703 94.4766 72.1406 94.4766 72.2109 94.4766C74.9766 94.6875 77.7188 93.8672 80.4141 93.4219C82.3828 93.0938 84.2812 93.0234 86.25 93.1641C87.9609 93.2813 89.6953 93.3984 91.4297 93.375C92.2734 93.3516 94.1719 93.4453 94.6641 92.7656C95.0391 92.2031 95.6016 92.2266 96.0469 92.5078C96.0938 92.4844 96.1641 92.4609 96.2109 92.4375C96.6094 92.3203 96.9844 92.25 97.3828 92.1797C98.0391 91.1016 97.9688 89.7891 97.9219 88.5469C97.875 87.0938 98.0391 85.6875 98.1562 84.2344C98.4609 80.7188 98.5781 77.2266 98.6719 73.7109C98.8359 66.75 98.5781 59.7891 98.5547 52.8281ZM49.5234 84.4922C48.2578 86.3203 45 86.0625 43.0781 85.875C40.6641 85.6641 38.2969 85.125 35.8828 84.8203C35.3438 84.75 34.9922 84.2578 34.9453 83.7656C34.6641 81.6094 34.2656 79.4766 34.0781 77.2969C33.8906 75.3047 33.6094 72.8438 34.4766 70.9453C35.3672 68.9766 37.7578 68.9766 39.6328 68.8828C40.8281 68.8125 42 68.7891 43.1953 68.7891C43.875 68.7891 44.5078 68.5781 45.1875 68.5078C46.0078 68.4375 46.8281 68.4375 47.6484 68.4375C48.3984 68.4375 48.8203 69 48.8672 69.5859C49.5234 69.3984 50.2969 69.7031 50.3203 70.5703C50.3437 73.0313 50.7188 75.4922 50.7656 77.9531C50.7656 80.1094 50.7891 82.6406 49.5234 84.4922ZM60.375 56.3906C58.1484 56.4375 55.3594 56.1094 53.7656 54.3516C52.2187 52.6406 51.8203 50.4844 51.7969 48.2578C51.7969 47.7891 52.0078 47.4609 52.3125 47.25C52.4766 46.6172 52.6875 46.0078 52.9688 45.4453C54.6562 42.1641 58.2188 40.2422 61.8984 40.4766C65.5781 40.7109 68.5312 43.4063 68.8594 47.1328C69.3281 52.3125 65.4844 56.2969 60.375 56.3906ZM91.0312 83.0859C86.4609 83.0859 81.8906 83.4375 77.3203 83.4375C77.1562 83.4375 77.0156 83.4141 76.8984 83.3672C76.4531 84.3984 74.6484 84.3984 74.6484 83.0625V75.6563C74.2266 75.1875 74.2266 74.3906 74.6484 73.9922V69.7031C74.6484 69.3047 74.8125 69.0234 75.0469 68.8125C74.9063 68.3906 75.0234 67.8984 75.5156 67.5938C77.4844 66.375 80.2734 66.3281 82.5234 66.2109C85.0312 66.0938 87.6094 66.0469 90.0937 66.3516C90.6328 66.4219 90.9609 66.9141 91.0312 67.4063C91.6875 72.1875 91.7578 77.0156 92.0859 81.8203C92.1562 82.4297 91.6875 83.0859 91.0312 83.0859Z" fill="#EF4823"/>
<path d="M82.4766 76.0078C80.6484 76.0547 78.8203 76.0547 76.9922 76.0547V81.1172C77.0391 81.1172 77.0859 81.1172 77.1328 81.1172C78.6797 81.1172 80.2266 81.0703 81.7734 81.0234C81.6094 80.7422 81.5859 80.3906 81.7969 80.0156C82.4063 78.8672 82.5 77.4141 82.4766 76.0078Z" fill="#D6E5E5"/>
<path d="M29.2969 79.9219C29.0391 79.7109 28.875 79.4297 28.8985 79.0781C27.7735 79.2422 26.7656 79.9922 26.0391 80.9063C25.1953 82.0078 24.3985 83.7656 25.5938 84.8906C26.4844 85.7344 25.7344 87.0234 24.586 86.9297C22.5469 86.7422 20.4375 87.7969 19.9219 89.9063C19.3828 92.1094 20.2735 94.1016 22.0781 95.4375C22.7578 95.9531 22.5 97.1953 21.7031 97.4297C20.6953 97.7109 19.875 98.2031 19.9922 99.3281C20.1094 100.523 20.7891 101.625 21.5156 102.539C22.7344 104.039 25.5938 106.57 27.6797 105.211C27.8438 105.117 28.0078 105.047 28.1485 105.023C27.7969 102.797 27.4219 100.547 28.125 98.4141C28.3828 97.6172 28.8281 96.7266 29.7422 96.5156C29.7656 96.5156 29.7656 96.5156 29.7891 96.5156C29.836 96.4687 29.9063 96.4453 29.9766 96.3984C29.9766 90.8906 29.6953 85.4063 29.2969 79.9219Z" fill="#3AB37C"/>
<path d="M54.2109 97.875C54.1875 97.7109 54.1875 97.5469 54.1641 97.3828C53.1094 97.6875 51.8906 97.4063 50.7422 97.5234C48.8672 97.7109 47.0156 98.1094 45.1406 98.1797C41.2031 98.3437 37.3125 98.2266 33.375 98.2031C33.2344 98.2031 33.0937 98.1797 32.9766 98.1328C32.4844 98.3438 31.8281 98.4141 31.2422 98.5078C31.0312 98.6719 30.7734 98.7891 30.5156 98.8125C30.4922 98.9766 30.3281 99.3047 30.3047 99.3516C30.0703 100.219 30.0469 101.109 30.1406 102C30.3281 103.523 30.6562 105.023 30.7969 106.547C30.8906 107.508 30.9375 108.492 31.5937 109.172C37.6406 109.148 43.6641 108.961 49.7109 108.773C49.8047 107.555 50.1328 106.336 51.3047 105.656C52.0312 105.258 52.7812 104.953 53.5547 104.766C53.4375 104.508 53.4375 104.18 53.6719 103.828C54.75 102.281 54.375 99.6797 54.2109 97.875ZM99.2812 94.3359C98.4844 94.3594 97.7109 94.4063 96.9609 94.6172C96.6562 94.7109 96.375 94.6875 96.1406 94.5703C95.2266 95.4844 93.5391 95.6016 92.3437 95.6484C90.375 95.7422 88.4297 95.625 86.4609 95.4844C84.3047 95.3437 82.2656 95.4375 80.1328 95.8125C77.4609 96.3047 74.8359 96.9141 72.1172 96.7734C72.1406 97.1484 72.1641 97.5469 72.1875 97.9219C72.2812 99.3984 72.3984 100.898 72.3281 102.375C72.3047 102.797 72.2812 103.266 72.1875 103.687C73.9219 103.594 75.6562 103.5 77.3906 103.43C78.75 103.383 80.0859 103.312 81.0937 104.367C82.0781 105.398 82.0078 106.922 82.1953 108.234C84.1875 108.211 86.1797 108.164 88.1484 108.117C90.3984 108.07 92.6719 107.953 94.8984 107.555C96.5156 107.273 98.2031 106.875 99.5625 105.938C99.5859 102.094 99.3281 98.2266 99.2812 94.3359Z" fill="#C56528"/>
<path d="M112.969 98.5781C112.922 97.5 112.781 96.0469 111.375 96.375C110.32 96.6328 109.219 95.4141 110.109 94.5C111.492 93.0469 112.711 90.9141 111.492 88.9688C110.531 87.4453 108.563 88.2422 107.156 88.6406C106.031 88.9688 105.141 87.7031 105.891 86.7656C106.992 85.4063 106.945 82.875 106.031 81.4219C105.633 80.8125 104.906 80.0156 104.063 80.2735C103.031 80.5781 101.461 81.2344 101.625 82.5235C101.719 83.3203 101.133 83.7422 100.523 83.7422C100.477 84.3516 100.43 84.961 100.383 85.5703C100.195 87.5625 100.617 89.9766 100.031 91.9922C100.148 91.9922 100.266 91.9922 100.383 91.9922C100.992 91.9922 101.648 92.3906 101.648 93.0703C101.648 96.0938 101.812 99.0938 101.906 102.117C101.93 102.773 101.953 103.43 101.953 104.086C102.094 104.016 102.281 103.969 102.492 103.969C105.914 103.969 109.266 103.805 111.984 101.484C112.852 100.734 113.039 99.7266 112.969 98.5781Z" fill="#3AB37C"/>
<path d="M57.4922 20.7891C56.9766 18.375 56.625 15.9609 56.4844 13.5234C55.6641 14.25 54.7969 14.9766 54.0469 15.7969C50.4844 19.7344 46.8984 23.6484 43.3359 27.5859C39.7266 31.6172 35.9531 35.4844 32.3203 39.4922C29.4609 42.6328 25.7812 45.0234 23.3906 48.5859C23.9297 49.125 24.4922 49.6406 25.0547 50.1328C25.8516 50.7891 26.6719 51.2344 27.5391 51.7734C27.5625 51.7734 27.5625 51.7969 27.5859 51.7969C27.6328 51.7734 27.6797 51.75 27.7266 51.7266C28.5938 51.2812 29.3906 50.8125 30.1641 50.2031C33.6562 47.4375 36.4219 43.8047 39.5625 40.6641C41.3672 38.8594 43.0312 36.9609 44.7656 35.0859C46.3594 33.3516 48.0938 31.7344 49.7109 30.0234C52.4297 27.1406 55.3828 24.4922 57.7969 21.3281C57.6562 21.2109 57.5391 21.0469 57.4922 20.7891ZM79.8047 107.227C79.7109 106.523 79.5469 105.867 79.0313 105.82C78 105.703 76.9453 105.844 75.9141 105.914C72.5391 106.102 69.1406 106.266 65.7656 106.5C62.9766 106.687 60.2109 106.734 57.3984 106.805C56.1328 106.852 54.75 106.852 53.5312 107.273C52.5703 107.602 52.1953 108.023 52.0781 108.773C58.4062 108.609 64.7344 108.609 71.0625 108.469C73.8047 108.398 76.5234 108.375 79.2656 108.328C79.2188 107.883 79.3828 107.414 79.8047 107.227ZM69.9609 103.102C70.125 102.82 70.4062 102.609 70.8047 102.562C70.2422 102.633 70.0547 102.844 69.9609 103.102Z" fill="#D6E5E5"/>
<path d="M69.4219 92.3438C69.1172 89.0391 68.7891 85.7344 68.3906 82.4297C67.9688 78.8438 68.8828 75.0234 67.6641 71.5313C67.4531 70.9219 67.3594 70.5703 66.7734 70.5938C65.7188 70.6406 64.7109 70.9219 63.6797 71.1563C61.1016 71.7656 58.4063 71.5313 55.7578 71.7422C55.2422 75.2344 55.1484 78.75 55.2188 82.2656C55.2891 85.3359 55.3125 88.4531 55.7578 91.5C56.1094 93.9375 56.5078 96.3984 56.625 98.8594C56.7188 100.617 56.8594 102.844 56.0391 104.484C57.5391 104.391 59.0391 104.414 60.5391 104.414C62.2266 104.414 63.9141 104.227 65.6016 104.133C67.0078 104.039 68.4141 103.945 69.7969 103.852C69.7734 103.594 69.8438 103.336 69.9609 103.125C69.9609 103.102 69.9609 103.078 69.9844 103.055C70.0078 102.984 70.0313 102.562 70.0313 102.656C70.1484 99.2344 69.7266 95.7422 69.4219 92.3438ZM58.5469 90.6328C57.9609 91.0313 57.3281 90.7969 56.9297 90.3281C56.3438 89.6484 56.3906 88.5 56.3906 87.6562C56.3906 87.0234 56.7891 86.4375 57.4688 86.3906C58.0781 86.3438 58.7344 86.8359 58.7344 87.4688C58.7344 87.8203 58.7344 88.1719 58.7578 88.5469C58.7578 88.6406 58.7813 88.7578 58.8047 88.8516C58.8047 88.875 58.8047 88.875 58.8281 88.9219C58.8281 88.9453 58.8281 88.9453 58.8516 88.9688C58.875 88.9922 58.875 89.0156 58.8984 89.0391C59.2969 89.4844 59.0391 90.3047 58.5469 90.6328Z" fill="#FEBF10"/>
<path d="M114.984 96.3985C114.68 95.3438 114.023 94.6641 113.203 94.3125C113.602 93.6329 113.93 92.9297 114.164 92.1329C114.609 90.5625 114.141 89.0625 113.414 87.6563C112.477 85.8282 110.625 85.6172 108.797 85.875C109.336 83.6485 108.867 81.0704 107.437 79.4297C106.266 78.0938 104.648 77.6719 102.961 78.1641C102.187 78.3985 101.391 78.7969 100.758 79.3594C100.828 77.8829 100.875 76.4063 100.945 74.9297C101.227 67.7813 100.945 60.6094 100.898 53.461C101.039 53.3907 101.18 53.2969 101.32 53.1797C102.586 51.8907 103.617 50.2969 104.602 48.7735C105.305 47.6719 106.734 45.4922 105.562 44.25C105.984 43.711 106.008 42.8672 105.187 42.5625C101.133 41.0157 98.039 37.4766 94.9219 34.5938C91.2187 31.1719 86.7656 28.5469 82.5937 25.7344C78.3281 22.8516 74.3203 19.6641 70.4766 16.2422C67.0781 13.2188 63.4922 9.96098 59.1562 8.46098C58.6641 8.29692 58.1953 8.43754 57.8906 8.71879C56.9531 8.46098 56.25 9.46879 56.4844 10.2422V10.2657C56.4609 10.2891 56.4609 10.3125 56.4375 10.336C56.2266 10.5938 55.9922 10.8516 55.7344 11.086C55.2891 11.5313 54.7969 11.9297 54.2812 12.3047C52.5234 13.5938 51.1406 15.6329 49.6406 17.2032C46.1719 20.8594 42.8672 24.6563 39.5156 28.4063C37.9219 30.1875 36.2578 31.9219 34.6172 33.6563C32.9062 35.461 31.2891 37.3594 29.5078 39.0938C26.5547 41.9532 23.25 44.4375 21.0469 48C20.8359 48.3516 20.8359 48.7032 20.9766 48.961C20.9766 49.2422 21.0937 49.5 21.3281 49.7344C22.7812 51.1875 24.2812 52.6172 26.1094 53.5782C26.5547 53.8125 26.8594 54.1875 27.375 54.3047C27.4219 54.3282 27.4922 54.3282 27.5391 54.3282C27.3047 55.8985 27.7734 57.8672 27.9609 59.1329C28.4297 62.4844 28.3594 65.8594 28.5937 69.2579C28.7812 71.7188 28.9687 74.2032 29.1328 76.6641C25.4297 76.8282 21.8906 81.211 22.9219 84.7032C20.6016 85.125 18.6562 86.5547 17.8359 89.0157C17.0391 91.4532 17.6953 94.0782 19.3125 95.9766C14.3437 99.5157 22.6641 110.391 28.5937 107.414C28.7109 108.516 28.9922 109.617 29.6484 110.508C30.7266 111.938 32.5078 111.539 34.1016 111.539C37.9219 111.516 41.7422 111.398 45.5859 111.281C59.9531 110.859 74.3437 110.813 88.7109 110.461C92.6015 110.367 96.8203 110.109 100.336 108.281C101.062 107.906 102.023 107.344 102.023 106.43C102.023 106.313 102.023 106.195 102.023 106.078C102.211 106.195 102.445 106.289 102.703 106.289C106.969 106.289 112.102 105.82 114.703 101.906C115.641 100.406 115.453 98.0391 114.984 96.3985ZM58.7812 10.8282C62.8594 12.4688 66.1875 15.586 69.4453 18.4922C73.289 21.9141 77.3672 25.0547 81.6562 27.9141C85.8515 30.7032 90.1875 33.3985 93.8906 36.8438C96.8672 39.6094 99.8906 42.8672 103.687 44.4844C103.477 44.8125 103.43 45.2344 103.641 45.6094C103.594 45.8672 103.453 46.1016 103.336 46.3125C102.984 47.0157 102.562 47.6954 102.117 48.3516C101.531 49.2188 100.898 50.1094 100.219 50.9297C97.0547 49.0782 94.5234 46.3125 91.6875 44.0157C88.0078 41.0625 84.4922 37.8985 80.8594 34.875C74.3437 29.4844 66.8203 25.4532 60.4453 19.875C60.1875 19.6407 59.9062 19.5704 59.625 19.5938C59.039 16.7344 58.7578 13.8516 58.7344 10.9454C58.7344 10.8985 58.7578 10.8516 58.7812 10.8282ZM59.8594 22.4766C66.1406 27.7266 73.3359 31.711 79.6406 36.9375C83.25 39.9375 86.7422 43.0547 90.3984 46.0079C93.1406 48.211 95.5781 50.8125 98.5547 52.6641C98.5547 52.711 98.5547 52.7579 98.5547 52.8282C98.5547 59.7891 98.8359 66.75 98.6484 73.711C98.5547 77.2266 98.4375 80.7188 98.1328 84.2344C98.0156 85.6875 97.8516 87.0938 97.8984 88.5469C97.9453 89.7891 98.0156 91.0782 97.3594 92.1797C96.9609 92.25 96.5625 92.3204 96.1875 92.4375C96.1172 92.461 96.0703 92.4844 96.0234 92.5079C95.6016 92.2266 95.039 92.2266 94.6406 92.7657C94.1484 93.4688 92.25 93.3516 91.4062 93.375C89.6719 93.4219 87.9609 93.2813 86.2265 93.1641C84.2344 93.0235 82.3594 93.1172 80.3906 93.4219C77.6953 93.8672 74.9531 94.6875 72.1875 94.4766C72.1172 94.4766 72.0469 94.4766 71.9766 94.4766C71.7422 91.6641 71.4609 88.8516 71.1562 86.0391C71.0156 84.7266 70.875 83.4375 70.7109 82.1485C70.5234 80.5782 70.7109 78.9141 70.6875 77.3204C70.6172 74.25 70.8047 68.0157 66.375 68.25C64.875 68.3204 63.4453 68.8829 61.9687 69.1172C60.8906 69.2813 59.6953 69.1407 58.5937 69.1641C57.2812 69.1875 55.9687 69.3047 54.6562 69.4922C54.1406 69.5625 53.6953 69.9141 53.6016 70.4297C53.0156 73.8282 52.875 77.2735 52.875 80.7188C52.875 84.0469 52.875 87.5157 53.3203 90.8204C53.5078 92.2032 53.7187 93.5625 53.8828 94.9454C53.7422 94.9922 53.625 95.086 53.5078 95.2032C53.4375 95.2735 51.7031 95.1094 51.4453 95.1094C50.5781 95.1329 49.7109 95.2735 48.8672 95.3907C47.1328 95.625 45.4219 95.7422 43.6875 95.9063C40.2187 96.2344 36.7031 95.8829 33.2109 95.8594C33.0937 95.8594 32.9766 95.8829 32.8828 95.9063C32.7656 95.8829 32.6484 95.8594 32.5078 95.8594C32.4609 95.8594 32.4141 95.8594 32.3672 95.8594C32.3672 95.836 32.3672 95.8125 32.3672 95.7657C32.3203 90 32.0391 84.1875 31.6172 78.3985C31.7344 78.0938 31.6875 77.7891 31.5469 77.5313C31.3828 75.2579 31.1953 72.9844 31.0078 70.7344C30.8437 68.7422 30.7031 66.7735 30.6328 64.7813C30.5859 63.3282 30.6094 61.8985 30.4219 60.4454C30.2578 59.2266 30.0703 58.0079 29.9531 56.7891C29.8828 56.2266 29.8594 55.6407 29.8359 55.0782C29.8359 54.8672 29.8359 54.6329 29.8594 54.4219C29.9062 54.0469 30.0234 54.1172 29.6953 54.3985C30.1406 54.0235 30.2109 53.5313 30.0937 53.086C33.8203 50.8829 36.7266 47.086 39.5391 43.9219C41.2031 42.0469 43.1016 40.3594 44.7891 38.5079C46.5937 36.5157 48.3984 34.5235 50.3437 32.6954C52.1484 31.0079 53.8359 29.1329 55.5703 27.375C57.1406 25.8282 58.5937 24.2344 59.8594 22.4766ZM56.625 98.8829C56.5078 96.4219 56.1094 93.961 55.7578 91.5235C55.3125 88.4766 55.2891 85.3594 55.2187 82.2891C55.1484 78.7735 55.2187 75.2344 55.7578 71.7657C58.4062 71.5313 61.1016 71.7657 63.6797 71.1797C64.7109 70.9454 65.7187 70.6875 66.7734 70.6172C67.3594 70.5938 67.4531 70.9454 67.6641 71.5547C68.8828 75.0469 67.9687 78.8672 68.3906 82.4532C68.789 85.7579 69.1172 89.0625 69.4219 92.3672C69.7266 95.7657 70.1719 99.2579 70.0078 102.68C70.0078 102.586 69.9844 103.008 69.9609 103.078C69.9609 103.102 69.9609 103.125 69.9375 103.148C69.8203 103.383 69.75 103.641 69.7734 103.875C68.3672 103.969 66.9609 104.063 65.5781 104.156C63.8906 104.273 62.2266 104.438 60.5156 104.438C59.0156 104.438 57.5156 104.414 56.0156 104.508C56.8594 102.844 56.7187 100.617 56.625 98.8829ZM70.8047 102.563C70.4062 102.633 70.125 102.844 69.9609 103.102C70.0547 102.844 70.2422 102.633 70.8047 102.563ZM27.75 51.7266C27.7031 51.75 27.6562 51.7735 27.6094 51.7969C27.5859 51.7969 27.5859 51.7735 27.5625 51.7735C26.7187 51.2344 25.875 50.7891 25.0781 50.1329C24.4922 49.6407 23.9531 49.125 23.4141 48.586C25.8047 45.0235 29.4844 42.6329 32.3437 39.4922C35.9766 35.4844 39.75 31.6172 43.3594 27.586C46.9219 23.6485 50.4844 19.711 54.0703 15.7969C54.8203 14.9766 55.6641 14.25 56.5078 13.5235C56.6719 15.961 57 18.375 57.5156 20.7891C57.5625 21.0235 57.6797 21.211 57.8203 21.3516C55.4062 24.4922 52.4766 27.1641 49.7344 30.0469C48.1172 31.7579 46.3828 33.375 44.7891 35.1094C43.0547 36.9844 41.3906 38.8829 39.5859 40.6875C36.4453 43.8282 33.7031 47.461 30.1875 50.2266C29.4141 50.8125 28.5937 51.2813 27.75 51.7266ZM29.8359 96.4922C29.8125 96.4922 29.8125 96.4922 29.7891 96.4922C28.8984 96.7032 28.4297 97.6172 28.1719 98.3907C27.4687 100.523 27.8203 102.797 28.1953 105C28.0312 105.023 27.8906 105.094 27.7266 105.188C25.6406 106.547 22.7812 104.016 21.5625 102.516C20.8125 101.602 20.1562 100.5 20.0391 99.3047C19.9219 98.1797 20.7422 97.6875 21.75 97.4063C22.5703 97.1954 22.8281 95.9297 22.125 95.4141C20.3437 94.0782 19.4297 92.086 19.9687 89.8829C20.4844 87.7735 22.5937 86.7188 24.6328 86.9063C25.7812 87 26.5078 85.7344 25.6406 84.8672C24.4453 83.7188 25.2187 81.961 26.0859 80.8829C26.7891 79.9688 27.8203 79.2188 28.9453 79.0547C28.9219 79.3829 29.0859 79.6875 29.3437 79.8985C29.7187 85.3829 30.0234 90.8672 30.0469 96.3516C29.9531 96.4219 29.8828 96.4454 29.8359 96.4922ZM49.7344 108.844C43.6875 109.031 37.6641 109.219 31.6172 109.242C30.9609 108.563 30.8906 107.555 30.8203 106.617C30.6797 105.094 30.3516 103.594 30.1641 102.07C30.0703 101.18 30.0937 100.289 30.3281 99.4219C30.3516 99.3516 30.5156 99.0469 30.5391 98.8829C30.8203 98.8594 31.0781 98.7422 31.2656 98.5782C31.8281 98.461 32.4844 98.3907 33 98.2032C33.1172 98.25 33.2578 98.2735 33.3984 98.2735C37.3359 98.2969 41.2266 98.4141 45.1641 98.25C47.0391 98.1797 48.9141 97.7813 50.7656 97.5938C51.9141 97.4766 53.1328 97.7579 54.1875 97.4532C54.2109 97.6172 54.2109 97.7813 54.2344 97.9454C54.3984 99.75 54.7734 102.352 53.7187 103.969C53.4844 104.32 53.4844 104.648 53.6016 104.906C52.8281 105.094 52.0781 105.375 51.3516 105.797C50.1328 106.383 49.8047 107.602 49.7344 108.844ZM79.2656 108.328C76.5234 108.375 73.8047 108.422 71.0625 108.469C64.7344 108.609 58.4062 108.609 52.0781 108.773C52.1953 108.023 52.5469 107.602 53.5312 107.273C54.75 106.852 56.1094 106.852 57.3984 106.805C60.2109 106.711 62.9766 106.688 65.7656 106.5C69.1406 106.266 72.5391 106.125 75.914 105.914C76.9453 105.844 78 105.727 79.0312 105.82C79.5234 105.867 79.7109 106.523 79.8047 107.227C79.3828 107.414 79.2187 107.883 79.2656 108.328ZM94.9453 107.578C92.7187 107.977 90.4453 108.094 88.1953 108.141C86.2031 108.188 84.2109 108.234 82.2422 108.258C82.0547 106.922 82.125 105.398 81.1406 104.391C80.1328 103.336 78.7969 103.406 77.4375 103.453C75.7031 103.523 73.9687 103.594 72.2344 103.711C72.3516 103.289 72.375 102.82 72.375 102.398C72.4453 100.922 72.3281 99.4219 72.2344 97.9454C72.2109 97.5704 72.1875 97.1719 72.164 96.7969C74.8828 96.9141 77.5078 96.3047 80.1797 95.836C82.3125 95.461 84.3516 95.3672 86.5078 95.5079C88.4531 95.6485 90.4219 95.7657 92.3906 95.6719C93.5625 95.625 95.2734 95.4844 96.1875 94.5938C96.4219 94.6875 96.7031 94.7344 97.0078 94.6407C97.7578 94.4297 98.5547 94.3594 99.3281 94.3594C99.375 98.2266 99.6328 102.094 99.6562 105.961C98.25 106.898 96.5391 107.297 94.9453 107.578ZM111.961 101.484C109.219 103.805 105.891 103.969 102.469 103.969C102.258 103.969 102.07 104.016 101.93 104.086C101.906 103.43 101.906 102.773 101.883 102.117C101.789 99.0938 101.625 96.0938 101.625 93.0704C101.625 92.3907 100.969 91.9922 100.359 91.9922C100.242 91.9922 100.125 91.9922 100.008 91.9922C100.594 90 100.172 87.5625 100.359 85.5704C100.406 84.961 100.453 84.3516 100.5 83.7422C101.109 83.7422 101.695 83.3204 101.602 82.5235C101.437 81.2344 103.008 80.5782 104.039 80.2735C104.883 80.0391 105.609 80.8125 106.008 81.4219C106.922 82.875 106.969 85.4063 105.867 86.7657C105.117 87.7032 106.008 88.9688 107.133 88.6407C108.539 88.2422 110.508 87.4454 111.469 88.9688C112.687 90.9141 111.492 93.0469 110.086 94.5C109.195 95.4141 110.297 96.6329 111.352 96.375C112.758 96.0469 112.898 97.5 112.945 98.5782C113.039 99.7266 112.852 100.734 111.961 101.484Z" fill="#010101"/>
<path d="M68.8594 47.1562C68.5312 43.4296 65.6016 40.7109 61.8984 40.4999C58.2187 40.2656 54.6562 42.1874 52.9687 45.4687C52.6875 46.0312 52.4531 46.664 52.3125 47.2734C52.0078 47.4843 51.7969 47.8124 51.7969 48.2812C51.8203 50.5078 52.2187 52.6874 53.7656 54.3749C55.3594 56.1328 58.1484 56.4609 60.375 56.414C65.4844 56.2968 69.3281 52.3124 68.8594 47.1562ZM65.9531 50.8359C65.1328 52.6171 63.3281 53.625 61.4531 53.9296C59.5781 54.2578 57.1875 54.1406 55.6406 52.8984C54.5156 51.9843 54.2344 50.414 54.1641 48.9843C54.3047 48.8437 54.4219 48.6328 54.4687 48.3749C54.9844 45.539 57.1406 43.4062 59.9766 42.8906C62.4844 42.4218 65.1797 43.3359 66.1641 45.8203C66.8203 47.4374 66.6562 49.3124 65.9531 50.8359ZM92.1094 81.8437C91.7812 77.039 91.7109 72.2109 91.0547 67.4296C90.9844 66.9375 90.6562 66.4218 90.1172 66.375C87.6094 66.0703 85.0547 66.1171 82.5469 66.2343C80.2969 66.3281 77.5078 66.3984 75.5391 67.6171C75.0469 67.9218 74.9297 68.414 75.0703 68.8359C74.8359 69.0468 74.6719 69.3515 74.6719 69.7265V74.0156C74.25 74.414 74.25 75.2109 74.6719 75.6796V83.0859C74.6719 84.4218 76.4766 84.4218 76.9219 83.3906C77.0391 83.4374 77.1797 83.4609 77.3437 83.4609C81.9141 83.4609 86.4844 83.1093 91.0547 83.1093C91.6875 83.0859 92.1562 82.4296 92.1094 81.8437ZM82.0547 68.5781C82.1016 70.2656 82.2656 71.9765 82.3594 73.664C80.5781 73.7109 78.7734 73.7109 76.9922 73.7109V69.5156C76.9922 69.4921 76.9922 69.4687 76.9922 69.4453C78.375 68.6718 80.3906 68.625 82.0547 68.5781ZM81.7969 79.9921C81.5859 80.3671 81.6094 80.7187 81.7734 81C80.2266 81.0468 78.6797 81.0937 77.1328 81.0937C77.0859 81.0937 77.0391 81.0937 76.9922 81.0937V76.0312C78.8203 76.0312 80.6484 76.0078 82.4766 75.9843C82.5 77.414 82.4062 78.8671 81.7969 79.9921ZM88.8516 68.5781C89.0625 70.289 89.2031 71.9999 89.2969 73.7109C89.0859 73.4765 88.7812 73.3359 88.3828 73.3828C87.1641 73.4765 85.9219 73.5468 84.7031 73.5937C84.6328 71.8828 84.4687 70.1953 84.3984 68.4843C85.875 68.4375 87.375 68.4609 88.8516 68.5781ZM83.9531 80.9296C84.7031 79.4531 84.7734 77.625 84.7734 75.9375C86.0391 75.8906 87.3047 75.8203 88.5703 75.7031C88.9453 75.6796 89.2266 75.4921 89.3906 75.2578C89.4844 77.0859 89.5781 78.914 89.6953 80.7656C87.7734 80.789 85.875 80.8593 83.9531 80.9296ZM50.7187 77.9765C50.6719 75.5156 50.2969 73.0546 50.2734 70.5937C50.2734 69.7265 49.4766 69.4218 48.8203 69.6093C48.7734 69.0234 48.3516 68.4609 47.6016 68.4609C46.7812 68.4609 45.9609 68.4609 45.1406 68.5312C44.4609 68.5781 43.8281 68.8125 43.1484 68.8125C41.9531 68.8125 40.7812 68.8359 39.5859 68.9062C37.7109 68.9999 35.3203 68.9999 34.4297 70.9687C33.5625 72.8671 33.8672 75.3046 34.0312 77.3203C34.2187 79.4765 34.6172 81.6328 34.8984 83.789C34.9687 84.2812 35.3203 84.7968 35.8359 84.8437C38.25 85.125 40.6172 85.664 43.0312 85.8984C44.9531 86.0625 48.2109 86.3437 49.4766 84.5156C50.7891 82.6406 50.7656 80.1093 50.7187 77.9765ZM43.5703 71.1328C44.1797 71.1328 44.7422 70.9218 45.3516 70.8515C46.1719 70.7578 46.9922 70.7812 47.8125 70.7812C47.8594 70.7812 47.9062 70.7812 47.9531 70.7812C47.9766 72.7031 48.2109 74.625 48.3281 76.5234C48.1406 76.5468 47.9531 76.5937 47.7656 76.7343C46.5469 77.5312 44.8594 77.6015 43.3359 77.5781C43.3359 75.4921 43.2656 73.3828 43.2422 71.2968C43.2422 71.25 43.2422 71.2031 43.2422 71.1562L43.5703 71.1328ZM40.9453 80.9296C40.9219 81.3515 40.8984 81.7968 40.8516 82.2187C40.8516 82.3124 40.8281 82.4062 40.8047 82.5C40.6172 82.6875 40.5234 82.9453 40.5469 83.2031C39.3984 83.0156 38.2734 82.8046 37.125 82.6406C36.9844 81.6328 36.8203 80.6015 36.6797 79.5937C38.1094 79.6406 39.5391 79.7578 40.9687 79.8281C40.9687 80.1796 40.9687 80.5546 40.9453 80.9296ZM40.9922 77.5078C39.4687 77.4375 37.9219 77.2968 36.3984 77.25C36.2109 75.5859 36.0937 73.8281 36.4687 72.2109C36.6094 71.6484 36.7266 71.6249 37.2187 71.4843C38.2266 71.2265 39.3516 71.2265 40.3594 71.1796C40.5469 71.1796 40.7344 71.1562 40.8984 71.1562C40.875 71.25 40.875 71.3437 40.875 71.4374C40.875 73.4062 40.9453 75.3515 40.9687 77.3203V77.5078H40.9922ZM47.7891 82.8281C47.2031 84.0703 44.3672 83.6953 42.9609 83.5312C43.0781 83.1796 43.125 82.8281 43.1719 82.5234C43.2656 81.6562 43.2891 80.789 43.3125 79.8984C45.0234 79.8984 46.875 79.8046 48.4219 79.0312C48.4453 80.3437 48.3281 81.6796 47.7891 82.8281ZM58.875 88.9921C58.8516 88.9687 58.8281 88.9453 58.8281 88.9218C58.8281 88.8984 58.8281 88.8984 58.8047 88.875C58.8047 88.8515 58.7812 88.8281 58.7812 88.8046C58.7578 88.7109 58.7578 88.5937 58.7344 88.5C58.7109 88.1484 58.7109 87.7968 58.7109 87.4218C58.7109 86.789 58.0547 86.2968 57.4453 86.3437C56.7656 86.3906 56.3672 86.9531 56.3672 87.6093C56.3672 88.4531 56.3203 89.6015 56.9062 90.2812C57.3281 90.7734 57.9609 90.9843 58.5234 90.5859C59.0391 90.3046 59.2969 89.4843 58.875 88.9921Z" fill="#010101"/>
</svg>
