<svg width="100" height="93" viewBox="0 0 100 93" fill="none" xmlns="http://www.w3.org/2000/svg">
<path d="M91.974 36.6694C91.97 36.6657 91.966 36.6556 91.962 36.6538C79.987 27.3746 67.912 18.6781 57.173 12.3049C55.99 11.6033 54.742 11.0004 53.411 10.5929C53.391 10.5864 53.371 10.5809 53.351 10.5744C52.278 10.2499 51.159 10.0867 50.039 10.0803V10.0775C50.026 10.0775 50.013 10.0784 50 10.0794C49.987 10.0794 49.974 10.0775 49.961 10.0775V10.0803C48.841 10.0877 47.722 10.2508 46.649 10.5744C46.629 10.5809 46.609 10.5864 46.589 10.5929C45.258 11.0004 44.009 11.6024 42.827 12.3049C32.088 18.6781 20.013 27.3746 8.037 36.6528C8.034 36.6556 8.029 36.6657 8.025 36.6685C6.222 38.0357 5.559 40.1607 6.571 41.7308C7.715 43.5046 10.558 43.8918 12.921 42.5965C13.038 42.5319 13.136 42.4526 13.247 42.3826C25.516 43.2621 37.753 43.6908 49.96 43.6991C49.973 43.6991 49.986 43.7 49.999 43.7C50.012 43.7 50.025 43.7 50.038 43.7C62.246 43.6908 74.483 43.2612 86.751 42.3826C86.861 42.4526 86.959 42.5319 87.077 42.5965C89.44 43.8918 92.283 43.5046 93.427 41.7308C94.441 40.1617 93.777 38.0357 91.974 36.6694Z" fill="#FB7369"/>
<path d="M86.755 42.3845L86.763 42.3808C73.337 35.282 61.242 28.1823 50.985 22.3511C50.332 21.9796 49.504 21.974 48.843 22.3345C37.733 28.4044 25.862 35.3059 13.253 42.3835C13.251 42.3835 13.249 42.3835 13.247 42.3835C13.243 42.3863 13.24 42.3881 13.236 42.3909C14.101 53.4282 15.365 64.151 16.879 74.4904C17.682 78.9783 20.948 82.052 25.679 82.052H74.32C79.051 82.052 82.094 78.7893 83.12 74.4904C85.238 63.727 86.492 53.0437 86.842 42.4435C86.814 42.4232 86.785 42.4038 86.755 42.3845Z" fill="#C9DCF4"/>
<path d="M50 68.3181C53.655 68.3181 56.664 65.7736 57.06 62.5017C57.108 62.0979 56.803 61.7688 56.362 61.7688C53.912 61.7688 46.088 61.7688 43.638 61.7688C43.198 61.7688 42.892 62.0979 42.941 62.5017C43.335 65.7736 46.345 68.3181 50 68.3181Z" fill="#4A254B"/>
<path d="M32.927 61.5273C36.788 61.5273 39.918 58.6417 39.918 55.0821C39.918 51.5226 36.788 48.637 32.927 48.637C29.066 48.637 25.936 51.5226 25.936 55.0821C25.936 58.6417 29.066 61.5273 32.927 61.5273Z" fill="white"/>
<path d="M32.927 58.012C34.6822 58.012 36.105 56.7002 36.105 55.0821C36.105 53.464 34.6822 52.1522 32.927 52.1522C31.1718 52.1522 29.749 53.464 29.749 55.0821C29.749 56.7002 31.1718 58.012 32.927 58.012Z" fill="#4A254B"/>
<path d="M67.073 61.5273C70.934 61.5273 74.064 58.6417 74.064 55.0821C74.064 51.5226 70.934 48.637 67.073 48.637C63.212 48.637 60.082 51.5226 60.082 55.0821C60.082 58.6417 63.212 61.5273 67.073 61.5273Z" fill="white"/>
<path d="M67.073 58.012C68.8281 58.012 70.251 56.7002 70.251 55.0821C70.251 53.464 68.8281 52.1522 67.073 52.1522C65.3178 52.1522 63.895 53.464 63.895 55.0821C63.895 56.7002 65.3178 58.012 67.073 58.012Z" fill="#4A254B"/>
<path d="M81 30.4234H69V19.0755C69 17.7055 70.205 16.5946 71.691 16.5946H78.308C79.795 16.5946 81 17.7055 81 19.0755V30.4234Z" fill="#FB7369"/>
</svg>
