<svg width="494" height="731" viewBox="0 0 494 731" fill="none" xmlns="http://www.w3.org/2000/svg">
<g filter="url(#filter0_d_2325_71)">
<path d="M12.4834 4.02744C3.85828 9.67453 1.44412 21.2444 7.09122 29.8695C12.7383 38.4946 24.3082 40.9088 32.9333 35.2617C41.5584 29.6146 43.9726 18.0447 38.3255 9.4196C32.6784 0.794496 21.1085 -1.61965 12.4834 4.02744ZM426.266 207.272L428.402 210.045L427.742 204.098L426.266 207.272ZM80.4098 473.728L78.2737 470.955L78.6303 476.742L80.4098 473.728ZM460.772 688.722C452.147 694.369 449.733 705.939 455.38 714.564C461.027 723.189 472.597 725.604 481.222 719.956C489.847 714.309 492.261 702.739 486.614 694.114C480.967 685.489 469.397 683.075 460.772 688.722ZM21.2328 22.8183L27.5384 25.75L30.4895 19.4025L24.1839 16.4708L21.2328 22.8183ZM40.1495 31.6134L52.7607 37.4767L55.7119 31.1292L43.1007 25.2659L40.1495 31.6134ZM65.3719 43.3401L77.9831 49.2034L80.9342 42.856L68.3231 36.9926L65.3719 43.3401ZM90.5943 55.0668L103.205 60.9302L106.157 54.5827L93.5454 48.7193L90.5943 55.0668ZM115.817 66.7935L128.428 72.6569L131.379 66.3094L118.768 60.4461L115.817 66.7935ZM141.039 78.5203L153.65 84.3836L156.601 78.0361L143.99 72.1728L141.039 78.5203ZM166.261 90.247L178.872 96.1104L181.824 89.7629L169.212 83.8995L166.261 90.247ZM191.484 101.974L204.095 107.837L207.046 101.49L194.435 95.6262L191.484 101.974ZM216.706 113.7L229.317 119.564L232.268 113.216L219.657 107.353L216.706 113.7ZM241.928 125.427L254.54 131.291L257.491 124.943L244.88 119.08L241.928 125.427ZM267.151 137.154L279.762 143.017L282.713 136.67L270.102 130.806L267.151 137.154ZM292.373 148.881L304.984 154.744L307.935 148.396L295.324 142.533L292.373 148.881ZM317.595 160.607L330.207 166.471L333.158 160.123L320.547 154.26L317.595 160.607ZM342.818 172.334L355.429 178.197L358.38 171.85L345.769 165.987L342.818 172.334ZM368.04 184.061L380.651 189.924L383.603 183.577L370.991 177.713L368.04 184.061ZM393.263 195.788L405.874 201.651L408.825 195.303L396.214 189.44L393.263 195.788ZM418.485 207.514L424.791 210.446L427.742 204.098L421.436 201.167L418.485 207.514ZM424.13 204.5L418.726 208.663L422.998 214.208L428.402 210.045L424.13 204.5ZM407.918 216.99L397.11 225.316L401.382 230.862L412.19 222.535L407.918 216.99ZM386.302 233.643L375.494 241.97L379.766 247.515L390.574 239.188L386.302 233.643ZM364.686 250.297L353.878 258.623L358.15 264.169L368.958 255.842L364.686 250.297ZM343.07 266.95L332.262 275.277L336.534 280.822L347.342 272.495L343.07 266.95ZM321.454 283.604L310.646 291.93L314.918 297.476L325.726 289.149L321.454 283.604ZM299.838 300.257L289.03 308.584L293.302 314.129L304.11 305.802L299.838 300.257ZM278.222 316.911L267.414 325.237L271.686 330.783L282.494 322.456L278.222 316.911ZM256.606 333.564L245.798 341.891L250.07 347.436L260.878 339.109L256.606 333.564ZM234.99 350.218L224.182 358.544L228.454 364.09L239.262 355.763L234.99 350.218ZM213.374 366.871L202.566 375.198L206.838 380.743L217.646 372.416L213.374 366.871ZM191.758 383.525L180.95 391.851L185.222 397.397L196.03 389.07L191.758 383.525ZM170.142 400.178L159.334 408.505L163.606 414.05L174.414 405.723L170.142 400.178ZM148.526 416.832L137.718 425.158L141.99 430.703L152.798 422.377L148.526 416.832ZM126.91 433.485L116.102 441.812L120.374 447.357L131.182 439.03L126.91 433.485ZM105.294 450.139L94.4858 458.465L98.7579 464.01L109.566 455.684L105.294 450.139ZM83.6778 466.792L78.2737 470.955L82.5458 476.501L87.9499 472.337L83.6778 466.792ZM78.6303 476.742L84.7332 480.345L88.2921 474.317L82.1892 470.714L78.6303 476.742ZM96.9391 487.552L109.145 494.758L112.704 488.731L100.498 481.524L96.9391 487.552ZM121.351 501.965L133.557 509.172L137.116 503.144L124.91 495.937L121.351 501.965ZM145.762 516.378L157.968 523.585L161.527 517.557L149.321 510.35L145.762 516.378ZM170.174 530.791L182.38 537.998L185.939 531.97L173.733 524.764L170.174 530.791ZM194.586 545.205L206.792 552.411L210.351 546.383L198.145 539.177L194.586 545.205ZM218.998 559.618L231.203 566.824L234.762 560.797L222.557 553.59L218.998 559.618ZM243.409 574.031L255.615 581.238L259.174 575.21L246.968 568.003L243.409 574.031ZM267.821 588.444L280.027 595.651L283.586 589.623L271.38 582.416L267.821 588.444ZM292.233 602.857L304.438 610.064L307.997 604.036L295.792 596.83L292.233 602.857ZM316.644 617.271L328.85 624.477L332.409 618.449L320.203 611.243L316.644 617.271ZM341.056 631.684L353.262 638.89L356.821 632.863L344.615 625.656L341.056 631.684ZM365.468 646.097L377.674 653.304L381.233 647.276L369.027 640.069L365.468 646.097ZM389.88 660.51L402.085 667.717L405.644 661.689L393.438 654.482L389.88 660.51ZM414.291 674.923L426.497 682.13L430.056 676.102L417.85 668.896L414.291 674.923ZM438.703 689.337L450.909 696.543L454.468 690.516L442.262 683.309L438.703 689.337ZM463.115 703.75L469.218 707.353L472.777 701.325L466.674 697.722L463.115 703.75ZM12.4834 4.02744C3.85828 9.67453 1.44412 21.2444 7.09122 29.8695C12.7383 38.4946 24.3082 40.9088 32.9333 35.2617C41.5584 29.6146 43.9726 18.0447 38.3255 9.4196C32.6784 0.794496 21.1085 -1.61965 12.4834 4.02744ZM426.266 207.272L428.402 210.045L427.742 204.098L426.266 207.272ZM80.4098 473.728L78.2737 470.955L78.6303 476.742L80.4098 473.728ZM460.772 688.722C452.147 694.369 449.733 705.939 455.38 714.564C461.027 723.189 472.597 725.604 481.222 719.956C489.847 714.309 492.261 702.739 486.614 694.114C480.967 685.489 469.397 683.075 460.772 688.722ZM21.2328 22.8183L27.5384 25.75L30.4895 19.4025L24.1839 16.4708L21.2328 22.8183ZM40.1495 31.6134L52.7607 37.4767L55.7119 31.1292L43.1007 25.2659L40.1495 31.6134ZM65.3719 43.3401L77.9831 49.2034L80.9342 42.856L68.3231 36.9926L65.3719 43.3401ZM90.5943 55.0668L103.205 60.9302L106.157 54.5827L93.5454 48.7193L90.5943 55.0668ZM115.817 66.7935L128.428 72.6569L131.379 66.3094L118.768 60.4461L115.817 66.7935ZM141.039 78.5203L153.65 84.3836L156.601 78.0361L143.99 72.1728L141.039 78.5203ZM166.261 90.247L178.872 96.1104L181.824 89.7629L169.212 83.8995L166.261 90.247ZM191.484 101.974L204.095 107.837L207.046 101.49L194.435 95.6262L191.484 101.974ZM216.706 113.7L229.317 119.564L232.268 113.216L219.657 107.353L216.706 113.7ZM241.928 125.427L254.54 131.291L257.491 124.943L244.88 119.08L241.928 125.427ZM267.151 137.154L279.762 143.017L282.713 136.67L270.102 130.806L267.151 137.154ZM292.373 148.881L304.984 154.744L307.935 148.396L295.324 142.533L292.373 148.881ZM317.595 160.607L330.207 166.471L333.158 160.123L320.547 154.26L317.595 160.607ZM342.818 172.334L355.429 178.197L358.38 171.85L345.769 165.987L342.818 172.334ZM368.04 184.061L380.651 189.924L383.603 183.577L370.991 177.713L368.04 184.061ZM393.263 195.788L405.874 201.651L408.825 195.303L396.214 189.44L393.263 195.788ZM418.485 207.514L424.791 210.446L427.742 204.098L421.436 201.167L418.485 207.514ZM424.13 204.5L418.726 208.663L422.998 214.208L428.402 210.045L424.13 204.5ZM407.918 216.99L397.11 225.316L401.382 230.862L412.19 222.535L407.918 216.99ZM386.302 233.643L375.494 241.97L379.766 247.515L390.574 239.188L386.302 233.643ZM364.686 250.297L353.878 258.623L358.15 264.169L368.958 255.842L364.686 250.297ZM343.07 266.95L332.262 275.277L336.534 280.822L347.342 272.495L343.07 266.95ZM321.454 283.604L310.646 291.93L314.918 297.476L325.726 289.149L321.454 283.604ZM299.838 300.257L289.03 308.584L293.302 314.129L304.11 305.802L299.838 300.257ZM278.222 316.911L267.414 325.237L271.686 330.783L282.494 322.456L278.222 316.911ZM256.606 333.564L245.798 341.891L250.07 347.436L260.878 339.109L256.606 333.564ZM234.99 350.218L224.182 358.544L228.454 364.09L239.262 355.763L234.99 350.218ZM213.374 366.871L202.566 375.198L206.838 380.743L217.646 372.416L213.374 366.871ZM191.758 383.525L180.95 391.851L185.222 397.397L196.03 389.07L191.758 383.525ZM170.142 400.178L159.334 408.505L163.606 414.05L174.414 405.723L170.142 400.178ZM148.526 416.832L137.718 425.158L141.99 430.703L152.798 422.377L148.526 416.832ZM126.91 433.485L116.102 441.812L120.374 447.357L131.182 439.03L126.91 433.485ZM105.294 450.139L94.4858 458.465L98.7579 464.01L109.566 455.684L105.294 450.139ZM83.6778 466.792L78.2737 470.955L82.5458 476.501L87.9499 472.337L83.6778 466.792ZM78.6303 476.742L84.7332 480.345L88.2921 474.317L82.1892 470.714L78.6303 476.742ZM96.9391 487.552L109.145 494.758L112.704 488.731L100.498 481.524L96.9391 487.552ZM121.351 501.965L133.557 509.172L137.116 503.144L124.91 495.937L121.351 501.965ZM145.762 516.378L157.968 523.585L161.527 517.557L149.321 510.35L145.762 516.378ZM170.174 530.791L182.38 537.998L185.939 531.97L173.733 524.764L170.174 530.791ZM194.586 545.205L206.792 552.411L210.351 546.383L198.145 539.177L194.586 545.205ZM218.998 559.618L231.203 566.824L234.762 560.797L222.557 553.59L218.998 559.618ZM243.409 574.031L255.615 581.238L259.174 575.21L246.968 568.003L243.409 574.031ZM267.821 588.444L280.027 595.651L283.586 589.623L271.38 582.416L267.821 588.444ZM292.233 602.857L304.438 610.064L307.997 604.036L295.792 596.83L292.233 602.857ZM316.644 617.271L328.85 624.477L332.409 618.449L320.203 611.243L316.644 617.271ZM341.056 631.684L353.262 638.89L356.821 632.863L344.615 625.656L341.056 631.684ZM365.468 646.097L377.674 653.304L381.233 647.276L369.027 640.069L365.468 646.097ZM389.88 660.51L402.085 667.717L405.644 661.689L393.438 654.482L389.88 660.51ZM414.291 674.923L426.497 682.13L430.056 676.102L417.85 668.896L414.291 674.923ZM438.703 689.337L450.909 696.543L454.468 690.516L442.262 683.309L438.703 689.337ZM463.115 703.75L469.218 707.353L472.777 701.325L466.674 697.722L463.115 703.75Z" fill="#00BD2A"/>
</g>
<defs>
<filter id="filter0_d_2325_71" x="0.0395508" y="0.97583" width="493.626" height="730.032" filterUnits="userSpaceOnUse" color-interpolation-filters="sRGB">
<feFlood flood-opacity="0" result="BackgroundImageFix"/>
<feColorMatrix in="SourceAlpha" type="matrix" values="0 0 0 0 0 0 0 0 0 0 0 0 0 0 0 0 0 0 127 0" result="hardAlpha"/>
<feOffset dy="4"/>
<feGaussianBlur stdDeviation="2"/>
<feComposite in2="hardAlpha" operator="out"/>
<feColorMatrix type="matrix" values="0 0 0 0 0 0 0 0 0 0 0 0 0 0 0 0 0 0 0.25 0"/>
<feBlend mode="normal" in2="BackgroundImageFix" result="effect1_dropShadow_2325_71"/>
<feBlend mode="normal" in="SourceGraphic" in2="effect1_dropShadow_2325_71" result="shape"/>
</filter>
</defs>
</svg>
