<svg width="90" height="90" viewBox="0 0 90 90" fill="none" xmlns="http://www.w3.org/2000/svg">
<path d="M78.5852 19.95C78.5455 19.3218 78.2961 18.725 77.877 18.2552C77.458 17.7855 76.8934 17.4699 76.2737 17.359C61.0686 14.6309 54.7212 12.6586 40.5321 6.24964C40.1681 6.0851 39.7732 6 39.3737 6C38.9742 6 38.5793 6.0851 38.2153 6.24964C24.0262 12.6586 17.6788 14.6309 2.4737 17.359C1.85402 17.4699 1.28945 17.7855 0.870363 18.2552C0.451278 18.725 0.201912 19.3218 0.162178 19.95C-0.51458 30.692 0.928584 40.701 4.45651 49.6992C7.34552 57.039 11.621 63.7536 17.0495 69.4764C26.4485 79.4485 36.4276 83.7797 38.3313 84.5461C39.0078 84.8198 39.7642 84.8198 40.4407 84.5461C42.3444 83.7797 52.3235 79.4485 61.7225 69.4764C67.1422 63.7515 71.4092 57.037 74.2909 49.6992C77.8188 40.701 79.262 30.692 78.5852 19.95ZM55.5579 33.153L36.0813 55.653C35.8309 55.9431 35.5238 56.179 35.1789 56.3461C34.834 56.5133 34.4586 56.6082 34.0757 56.625H33.9596C33.2236 56.6252 32.5167 56.3368 31.9909 55.8217L23.3425 47.349C23.0786 47.0905 22.8683 46.7825 22.7234 46.4427C22.5786 46.1029 22.5021 45.7378 22.4984 45.3685C22.4908 44.6224 22.7799 43.904 23.302 43.3711C23.8242 42.8382 24.5366 42.5346 25.2826 42.527C26.0286 42.5195 26.7471 42.8085 27.28 43.3307L33.7839 49.7098L51.3092 29.4721C51.5509 29.1928 51.8453 28.9638 52.1755 28.7982C52.5056 28.6327 52.8652 28.5338 53.2336 28.5072C53.602 28.4806 53.972 28.5268 54.3226 28.6432C54.6731 28.7596 54.9973 28.9439 55.2766 29.1856C55.5559 29.4273 55.7849 29.7216 55.9505 30.0518C56.1161 30.382 56.215 30.7415 56.2416 31.1099C56.2682 31.4783 56.222 31.8484 56.1056 32.1989C55.9892 32.5495 55.8048 32.8736 55.5632 33.153H55.5579Z" fill="#BF0000"/>
</svg>
