<svg width="58" height="76" viewBox="0 0 58 76" fill="none" xmlns="http://www.w3.org/2000/svg">
<path d="M25.7778 75.5111V69.4262C9.7734 68.661 0.0503472 61.821 0 51.4523H14.5C14.8565 55.853 19.3051 59.2129 25.7778 59.806V43.4327L20.3866 42.2631C8.10187 39.894 1.52854 34.0113 1.52854 25.2081C1.52854 14.831 10.4883 8.02606 25.7778 7.01024V0.661377H32.2222V7.01024C47.8077 8.06281 56.1875 14.9864 56.3889 24.7202H41.8889C41.7358 20.7004 38.7009 17.4708 32.2222 17.0348V32.4057L38.429 33.622C51.477 35.9911 58 41.5948 58 50.784C58 61.5336 49.1913 68.4739 32.2222 69.3828V75.5111H25.7778ZM25.7778 31.4032V17.0348C20.2215 17.2887 16.2581 20.1206 16.2581 24.1405C16.2581 27.8662 19.5589 30.3022 25.7778 31.4032ZM32.2222 44.4351V59.806C39.9052 59.5487 43.5765 56.645 43.5765 52.159C43.5765 48.0523 39.9052 45.2872 32.2222 44.4351Z" fill="#BF0000"/>
</svg>
